# xmcd CD database file
#
# Track frame offsets:
#	150
#	13715
#	29240
#	46337
#	60525
#	79882
#	98152
#	116052
#	131625
#	157390
#	181455
#
# Disc length: 2605 seconds
#
# Revision: 0
# Processed by: cddbd v1.5.2PL0 Copyright (c) Steve Scherf et al.
# Submitted via: CDex 1.51
#
DISCID=9c0a2b0b
DTITLE=Vince Gill - High Lonesome Sound
DYEAR=1996
DGENRE=Country
TTITLE0=One Dance With You
TTITLE1=High Lonesome Sound
TTITLE2=Pretty Little Adriana
TTITLE3=A Little More Love
TTITLE4=Down to New Orleans
TTITLE5=Tell Me Lover
TTITLE6=Given More Time
TTITLE7=You and You Alone
TTITLE8=Worlds Apart
TTITLE9=Jenny Dreamed of Trains
TTITLE10=High Lonesome Sound
EXTD=YEAR: 1996
EXTT0=
EXTT1=
EXTT2=
EXTT3=
EXTT4=
EXTT5=
EXTT6=
EXTT7=
EXTT8=
EXTT9=
EXTT10=
PLAYORDER=
